<svg width="45" height="53" viewBox="0 0 45 53" fill="none" xmlns="http://www.w3.org/2000/svg">
<path d="M22.3649 16.4363C17.7434 16.4363 13.978 20.8639 13.978 26.2981C13.978 31.7324 17.7434 36.16 22.3649 36.16C26.9863 36.16 30.7517 31.7324 30.7517 26.2981C30.7517 20.8639 26.9863 16.4363 22.3649 16.4363ZM43.891 24.7059L35.6178 19.8469L38.5444 9.53308C38.9376 8.13599 37.8106 6.81081 36.6312 7.28335L27.86 10.7247L23.719 0.986181C23.1599 -0.328727 21.5699 -0.328727 21.0107 0.986181L16.8785 10.7144L8.09852 7.27308C6.91039 6.81081 5.78341 8.13599 6.18528 9.52281L9.11193 19.8366L0.838682 24.7059C-0.279561 25.3633 -0.279561 27.233 0.838682 27.8904L9.11193 32.7494L6.18528 43.0735C5.79215 44.4706 6.91913 45.7958 8.09852 45.3232L16.8697 41.8819L21.002 51.6101C21.5611 52.925 23.1511 52.925 23.7102 51.6101L27.8425 41.8819L36.6137 45.3232C37.8018 45.7855 38.9288 44.4603 38.527 43.0735L35.6003 32.7597L43.8736 27.9007C45.0093 27.233 45.0093 25.3633 43.891 24.7059ZM30.2712 35.595C25.9118 40.721 18.8179 40.721 14.4585 35.595C10.0991 30.4689 10.0991 22.1274 14.4585 17.0013C18.8179 11.8753 25.9118 11.8753 30.2712 17.0013C34.6306 22.1274 34.6306 30.4689 30.2712 35.595Z" fill="#FED50D"/>
</svg>
